Coordinates
version=1
nRows=14
nColumns=40
inDegrees=yes

Units are S.I. units (second, meters, Newtons, ...)
Angles are in degrees.

endheader
time	pelvis_tilt	pelvis_list	pelvis_rotation	pelvis_tx	pelvis_ty	pelvis_tz	hip_flexion_r	hip_adduction_r	hip_rotation_r	knee_angle_r	knee_angle_r_beta	ankle_angle_r	subtalar_angle_r	mtp_angle_r	hip_flexion_l	hip_adduction_l	hip_rotation_l	knee_angle_l	knee_angle_l_beta	ankle_angle_l	subtalar_angle_l	mtp_angle_l	lumbar_extension	lumbar_bending	lumbar_rotation	arm_flex_r	arm_add_r	arm_rot_r	elbow_flex_r	pro_sup_r	wrist_flex_r	wrist_dev_r	arm_flex_l	arm_add_l	arm_rot_l	elbow_flex_l	pro_sup_l	wrist_flex_l	wrist_dev_l
     54.33000000	     -4.95782935	     -4.75411412	     -1.52490626	      0.95766648	      0.92743823	      0.44128804	     32.93533712	     -4.85924729	     -4.48005549	     75.30001263	     75.30001263	     -0.85055030	    -18.50022661	      6.90052356	     20.97461410	     -6.52260311	     -4.34377014	     25.46960566	     25.46960566	     11.30842692	    -13.08251649	      1.76518861	    -11.82438760	      4.61755098	      1.91111344	     23.25964902	    -13.99420124	      5.85863444	    100.25489267	     45.22354222	      0.00000000	      0.00000000	      1.15412206	    -10.25801997	      1.08017715	     42.24639782	     45.76763884	      0.00000000	      0.00000000
     54.34185714	     -4.82363563	     -4.78677268	     -1.84755027	      0.95667762	      0.92821372	      0.44127195	     34.39179868	     -4.69670888	     -4.11843380	     74.86100969	     74.86100969	     -0.67037013	    -18.31215589	      6.52322544	     20.04859911	     -6.53413603	     -4.37883708	     25.18270885	     25.18270885	     11.65145277	    -13.45215814	      1.76756553	    -12.02285029	      4.77189741	      2.38575551	     20.64980725	    -14.67669879	      5.61839188	     96.97683601	     45.31845972	      0.00000000	      0.00000000	      2.96121291	    -10.71381864	      0.63729329	     43.99182028	     45.86001005	      0.00000000	      0.00000000
     54.35371429	     -4.65647281	     -4.82281224	     -2.19858378	      0.95584102	      0.92904734	      0.44132784	     35.67697491	     -4.49620732	     -3.76518101	     74.18703266	     74.18703266	     -0.57966471	    -18.14560015	      6.12190111	     19.03994433	     -6.59887112	     -4.65745167	     24.82938306	     24.82938306	     12.05559730	    -13.47832217	      1.68648532	    -12.24154730	      4.90496737	      2.83886987	     18.26318503	    -15.00022086	      5.09236772	     93.06466717	     45.44314021	      0.00000000	      0.00000000	      4.54668422	    -11.14795999	      0.08269310	     46.15446643	     45.96414494	      0.00000000	      0.00000000
     54.36557143	     -4.48654216	     -4.85251243	     -2.51916335	      0.95507006	      0.92980236	      0.44144823	     36.79630913	     -4.32837339	     -3.51832272	     73.23196183	     73.23196183	     -0.63079132	    -18.04616680	      5.25765109	     18.06021547	     -6.66159265	     -4.95482632	     24.52788748	     24.52788748	     12.43956330	    -13.43270192	      1.52805580	    -12.42560330	      5.00226147	      2.27186105	     17.08659879	    -13.77075406	      3.75131568	     87.22210056	     45.64706955	      0.00000000	      0.00000000	      4.98659216	    -11.98254434	     -1.15553997	     49.80395746	     46.16045875	      0.00000000	      0.00000000
     54.37742857	     -4.31006815	     -4.83918501	     -2.88559589	      0.95439593	      0.93052959	      0.44160517	     37.77692219	     -4.18989246	     -3.28546840	     71.99282920	     71.99282920	     -0.64483068	    -17.91179701	      4.67172848	     17.01040929	     -6.66101440	     -5.28020364	     24.11768070	     24.11768070	     12.82584256	    -13.42619180	      1.46982851	    -12.65281821	      5.05693317	      1.98877167	     15.94318147	    -13.60190687	      3.85071217	     82.10404192	     45.76959016	      0.00000000	      0.00000000	      5.69566892	    -12.51407999	     -2.78904968	     53.00786902	     46.39662848	      0.00000000	      0.00000000
     54.38928571	     -4.16942424	     -4.82750319	     -3.27231152	      0.95381025	      0.93118563	      0.44183621	     38.62162396	     -4.03929515	     -3.12044695	     70.39880330	     70.39880330	     -0.57211246	    -17.73138767	      4.33727306	     15.98559177	     -6.65604558	     -5.62114261	     23.68449122	     23.68449122	     13.19362779	    -13.41479061	      1.43385608	    -12.83226559	      5.12670928	      2.02740267	     14.71172167	    -13.60521820	      3.64638713	     77.27200599	     45.89503854	      0.00000000	      0.00000000	      6.76828698	    -12.93311408	     -4.02028713	     55.60031954	     46.57710288	      0.00000000	      0.00000000
     54.40114286	     -3.99954049	     -4.78383803	     -3.69658254	      0.95332566	      0.93186005	      0.44219842	     39.25913446	     -3.90544311	     -3.00594857	     68.43207760	     68.43207760	     -0.38523123	    -17.47113708	      4.30646922	     14.85720578	     -6.60838893	     -6.01113437	     23.13099150	     23.13099150	     13.57144817	    -13.40316522	      1.45871624	    -13.16251741	      5.14244656	      2.78806308	     12.72658208	    -14.43392861	      3.71655647	     74.15621377	     45.97551108	      0.00000000	      0.00000000	      8.50928186	    -13.14349189	     -4.60332819	     57.52175586	     46.67165812	      0.00000000	      0.00000000
     54.41300000	     -3.87894844	     -4.67298781	     -4.07855377	      0.95299650	      0.93235581	      0.44258561	     39.72475065	     -3.87588178	     -3.00621201	     66.02635415	     66.02635415	     -0.43284543	    -17.27206745	      3.32063427	     13.81186477	     -6.46661800	     -6.34492793	     22.62280975	     22.62280975	     13.84960485	    -13.42397182	      1.36528735	    -13.21808345	      5.10634346	      2.14572396	     12.62413006	    -13.64074356	      3.15733135	     67.34998077	     46.16489196	      0.00000000	      0.00000000	      8.75386757	    -13.88339186	     -5.95097369	     61.07009824	     46.86451954	      0.00000000	      0.00000000
     54.42485714	     -3.80155329	     -4.59678593	     -4.47822756	      0.95272579	      0.93277739	      0.44311770	     39.99187158	     -3.79977021	     -3.13652787	     63.16061768	     63.16061768	     -0.46692448	    -16.99013446	      2.30839977	     12.75695996	     -6.36012942	     -6.69666639	     22.01477085	     22.01477085	     14.12518922	    -13.40859273	      1.26780547	    -13.32497592	      5.10750468	      2.10323317	     11.84646225	    -13.82748532	      3.48077832	     62.17662766	     46.25897255	      0.00000000	      0.00000000	      9.51289375	    -14.30161931	     -7.13948319	     64.09597160	     47.04124462	      0.00000000	      0.00000000
     54.43671429	     -3.78957267	     -4.49162076	     -4.86623295	      0.95250408	      0.93302290	      0.44377329	     40.10741062	     -3.74239494	     -3.37424890	     59.89060686	     59.89060686	     -0.43897877	    -16.51083807	      1.39053421	     11.77218916	     -6.22537300	     -7.06238461	     21.40105650	     21.40105650	     14.37022187	    -13.37717078	      1.13453693	    -13.37477807	      5.07820026	      2.37509744	     10.80248947	    -14.16302864	      3.49910504	     57.29774327	     46.36907021	      0.00000000	      0.00000000	     10.53819561	    -14.68363329	     -7.74933874	     66.92358589	     47.16354358	      0.00000000	      0.00000000
     54.44857143	     -3.70303358	     -4.37713014	     -5.22514399	      0.95243094	      0.93323978	      0.44460663	     39.92167060	     -3.66687455	     -3.69821797	     56.29984884	     56.29984884	     -0.13972624	    -15.72814697	      1.04736427	     10.68363278	     -6.06779489	     -7.43648012	     20.75226321	     20.75226321	     14.66393883	    -13.30404828	      1.07039369	    -13.51512031	      5.00879835	      3.06732343	      8.99468383	    -14.95372335	      3.60118106	     54.00378055	     46.45013565	      0.00000000	      0.00000000	     12.07018120	    -14.77458044	     -8.17928696	     69.30405466	     47.25334199	      0.00000000	      0.00000000
     54.46042857	     -3.74980260	     -4.31582416	     -5.48407553	      0.95243112	      0.93322540	      0.44551638	     39.49113661	     -3.56097820	     -4.25083974	     52.13582628	     52.13582628	     -0.35396245	    -14.94046975	     -0.92547120	      9.75138649	     -5.98200625	     -7.69792668	     20.09455809	     20.09455809	     14.78321623	    -13.17538230	      0.60930164	    -13.45642581	      5.02600936	      2.52725949	      9.20697437	    -14.53506513	      3.31316238	     46.85788645	     46.63935788	      0.00000000	      0.00000000	     12.22159472	    -15.65867184	     -8.80267082	     73.01438301	     47.39712961	      0.00000000	      0.00000000
     54.47228571	     -3.75186877	     -4.19320775	     -5.74872088	      0.95257059	      0.93302062	      0.44664408	     38.88329689	     -3.46345183	     -4.82682713	     47.90885342	     47.90885342	      0.03705916	    -13.41133961	     -1.16536679	      8.77389651	     -5.83502821	     -8.01590413	     19.47493737	     19.47493737	     15.06582199	    -12.96635224	      0.43001092	    -13.50095576	      4.91214531	      3.24419186	      7.25406817	    -15.32350260	      3.45019752	     43.88783894	     46.70625925	      0.00000000	      0.00000000	     13.75484088	    -15.61717958	     -9.23145530	     75.57526387	     47.49165188	      0.00000000	      0.00000000
     54.48414286	     -3.82973952	     -4.14951279	     -5.85499321	      0.95286104	      0.93256054	      0.44777203	     37.97794982	     -3.29866159	     -5.65356892	     43.27374200	     43.27374200	      0.07091595	    -11.86406052	     -2.28297847	      7.89330890	     -5.77978047	     -8.25172774	     18.83630996	     18.83630996	     15.14358017	    -12.77103974	     -0.32559072	    -13.35401053	      5.00033329	      2.64600755	      7.36131867	    -15.01112899	      3.09290333	     37.41473431	     46.86303611	      0.00000000	      0.00000000	     13.90333200	    -16.39805129	     -9.96609467	     79.16404577	     47.65768522	      0.00000000	      0.00000000
